{
  "accessors": [
    {
      "bufferView": 2,
      "componentType": 5126,
      "count": 11343,
      "max": [
        154.87442016601563,
        74.78834533691406,
        119.21487426757813
      ],
      "min": [
        0.0,
        21.98959732055664,
        1.1112022399902344
      ],
      "type": "VEC3"
    },
    {
      "bufferView": 2,
      "byteOffset": 136116,
      "componentType": 5126,
      "count": 11343,
      "max": [
        0.9993302822113037,
        0.9999495148658752,
        0.9996970295906067
      ],
      "min": [
        -0.9996824264526367,
        -0.9999381303787231,
        -0.9999979138374329
      ],
      "type": "VEC3"
    },
    {
      "bufferView": 1,
      "componentType": 5126,
      "count": 11343,
      "max": [
        0.28515625,
        0.29427823424339294
      ],
      "min": [
        0.0,
        0.0
      ],
      "type": "VEC2"
    },
    {
      "bufferView": 0,
      "componentType": 5125,
      "count": 61326,
      "type": "SCALAR"
    },
    {
      "bufferView": 2,
      "byteOffset": 272232,
      "componentType": 5126,
      "count": 53612,
      "max": [
        154.74459838867188,
        85.69039154052734,
        136.86610412597656
      ],
      "min": [
        0.49541473388671875,
        0.0,
        0.0
      ],
      "type": "VEC3"
    },
    {
      "bufferView": 2,
      "byteOffset": 915576,
      "componentType": 5126,
      "count": 53612,
      "max": [
        0.9993302822113037,
        0.9999824166297913,
        0.9997255206108093
      ],
      "min": [
        -0.9999914169311523,
        -0.9999852776527405,
        -0.9999993443489075
      ],
      "type": "VEC3"
    },
    {
      "bufferView": 1,
      "byteOffset": 90744,
      "componentType": 5126,
      "count": 53612,
      "max": [
        0.9974989891052246,
        0.9979090094566345
      ],
      "min": [
        0.0005672569968737662,
        0.0004906650283373892
      ],
      "type": "VEC2"
    },
    {
      "bufferView": 0,
      "byteOffset": 245304,
      "componentType": 5125,
      "count": 253032,
      "type": "SCALAR"
    }
  ],
  "asset": {
    "extras": {
      "author": "UVic Libraries (https://sketchfab.com/uviclib)",
      "license": "CC-BY-4.0 (http://creativecommons.org/licenses/by/4.0/)",
      "source": "https://sketchfab.com/3d-models/sandpiper-specimen-3d176ba478bb492190d5fcc10ef678a5",
      "title": "Sandpiper specimen"
    },
    "generator": "Sketchfab-12.66.0",
    "version": "2.0"
  },
  "bufferViews": [
    {
      "buffer": 0,
      "byteLength": 1257432,
      "name": "floatBufferViews",
      "target": 34963
    },
    {
      "buffer": 0,
      "byteLength": 519640,
      "byteOffset": 1257432,
      "byteStride": 8,
      "name": "floatBufferViews",
      "target": 34962
    },
    {
      "buffer": 0,
      "byteLength": 1558920,
      "byteOffset": 1777072,
      "byteStride": 12,
      "name": "floatBufferViews",
      "target": 34962
    }
  ],
  "buffers": [
    {
      "byteLength": 3335992,
      "uri": "scene.bin"
    }
  ],
  "extensionsUsed": [
    "KHR_materials_unlit"
  ],
  "images": [
    {
      "uri": "textures/GeneratedMat1_baseColor.png"
    },
    {
      "uri": "textures/material_baseColor.png"
    }
  ],
  "materials": [
    {
      "doubleSided": true,
      "extensions": {
        "KHR_materials_unlit": {}
      },
      "name": "GeneratedMat1",
      "pbrMetallicRoughness": {
        "baseColorTexture": {
          "index": 0
        },
        "metallicFactor": 0.0
      }
    },
    {
      "doubleSided": true,
      "extensions": {
        "KHR_materials_unlit": {}
      },
      "name": "material",
      "pbrMetallicRoughness": {
        "baseColorTexture": {
          "index": 1
        },
        "metallicFactor": 0.0
      }
    }
  ],
  "meshes": [
    {
      "name": "Object_0",
      "primitives": [
        {
          "attributes": {
            "NORMAL": 1,
            "POSITION": 0,
            "TEXCOORD_0": 2
          },
          "indices": 3,
          "material": 0,
          "mode": 4
        }
      ]
    },
    {
      "name": "Object_1",
      "primitives": [
        {
          "attributes": {
            "NORMAL": 5,
            "POSITION": 4,
            "TEXCOORD_0": 6
          },
          "indices": 7,
          "material": 1,
          "mode": 4
        }
      ]
    }
  ],
  "nodes": [
    {
      "children": [
        1
      ],
      "matrix": [
        8.938803672790527,
        0.0,
        0.0,
        0.0,
        0.0,
        1.9848131300271915e-15,
        -8.938803672790527,
        0.0,
        0.0,
        8.938803672790527,
        1.9848131300271915e-15,
        0.0,
        0.0,
        0.0,
        0.0,
        1.0
      ],
      "name": "Sketchfab_model"
    },
    {
      "children": [
        2
      ],
      "matrix": [
        1.0,
        0.0,
        0.0,
        0.0,
        0.0,
        1.0,
        0.0,
        0.0,
        0.0,
        0.0,
        1.0,
        0.0,
        -79.1808090209961,
        -36.88469696044922,
        -61.54600143432617,
        1.0
      ],
      "name": "sandpiper-filled.obj.cleaner.materialmerger.gles"
    },
    {
      "children": [
        3,
        4
      ],
      "name": "Object_2"
    },
    {
      "mesh": 0,
      "name": "Object_3"
    },
    {
      "mesh": 1,
      "name": "Object_4"
    }
  ],
  "samplers": [
    {
      "magFilter": 9729,
      "minFilter": 9987,
      "wrapS": 10497,
      "wrapT": 10497
    }
  ],
  "scene": 0,
  "scenes": [
    {
      "name": "Sketchfab_Scene",
      "nodes": [
        0
      ]
    }
  ],
  "textures": [
    {
      "sampler": 0,
      "source": 0
    },
    {
      "sampler": 0,
      "source": 1
    }
  ]
}
